PathFileType	4	(X/Y/Z)	C:\Users\Graham\Documents\MATLAB\MOtoNMS_v2_2\MyData\ElaboratedData\S6\17-05-19\staticElaborations\Static1\Static1\\Static1.trc
DataRate	CameraRate	NumFrames	NumMarkers	Units	OrigDataRate	DataStartFrame
100	100	4	38	mm	100	2
Frame#	Time	V_Sacral			R_ASIS			L_ASIS			R_Knee_Lat			R_Knee_Med			R_Thigh_Upper			R_Thigh_Front			R_Thigh_Rear			L_Knee_Lat			L_Knee_Med			L_Thigh_Upper			L_Thigh_Front			L_Thigh_Rear			R_Ankle_Lat			R_Ankle_Med			R_Shank_Upper			R_Shank_Front			R_Shank_Rear			L_Ankle_Lat			L_Ankle_Med			L_Shank_Upper			L_Shank_Front			L_Shank_Rear			R_Heel			R_MTP1			R_MTP5			L_Heel			L_MTP1			L_MTP5			Clavicle			R_Acromium			L_Acromium			LAJC			RAJC			LHJC			RHJC			LKJC			RKJC		
		X1	Y1	Z1	X2	Y2	Z2	X3	Y3	Z3	X4	Y4	Z4	X5	Y5	Z5	X6	Y6	Z6	X7	Y7	Z7	X8	Y8	Z8	X9	Y9	Z9	X10	Y10	Z10	X11	Y11	Z11	X12	Y12	Z12	X13	Y13	Z13	X14	Y14	Z14	X15	Y15	Z15	X16	Y16	Z16	X17	Y17	Z17	X18	Y18	Z18	X19	Y19	Z19	X20	Y20	Z20	X21	Y21	Z21	X22	Y22	Z22	X23	Y23	Z23	X24	Y24	Z24	X25	Y25	Z25	X26	Y26	Z26	X27	Y27	Z27	X28	Y28	Z28	X29	Y29	Z29	X30	Y30	Z30	X31	Y31	Z31	X32	Y32	Z32	X33	Y33	Z33	X34	Y34	Z34	X35	Y35	Z35	X36	Y36	Z36	X37	Y37	Z37	X38	Y38	Z38	

162	1.610000	-123.190272	1063.851427	17.195414	85.277239	1059.496713	168.245895	90.156640	1056.197005	-99.774388	-32.067145	547.407831	208.103387	7.391808	539.467607	88.016414	94.318625	814.168781	198.461972	95.288574	701.787942	150.542817	51.745447	706.765577	212.977583	-17.327853	559.646561	-139.423699	10.228169	530.672780	-24.011909	116.212583	803.397861	-99.543718	97.169730	689.353566	-54.897821	73.092579	689.836440	-130.243240	-134.914681	103.045722	206.029167	-80.843503	111.269563	120.443030	-12.182829	366.357213	189.886533	-38.825678	251.042792	149.695416	-58.549291	256.883327	214.753217	-115.703437	98.120556	-152.838257	-68.076031	100.569749	-63.852616	-4.174185	374.156526	-129.662993	-22.764747	266.064231	-91.092936	-47.031983	268.613550	-159.039793	-187.783728	32.239361	146.319520	45.583222	61.173387	187.262376	-0.917808	54.975143	256.577720	-173.370062	50.487672	-99.715493	66.495241	53.649961	-112.704763	28.158805	48.267083	-200.912760	76.338343	1484.571335	17.138433	-19.960488	1540.101983	222.285792	-4.700587	1528.835287	-184.036981	-91.889734	99.345152	-108.345437	-107.879092	107.157643	163.236098	26.107607	967.160080	-61.560560	22.621468	969.517591	129.929303	-3.549842	545.159671	-81.717804	-12.337668	543.437719	148.059901	
163	1.620000	-123.194032	1063.842204	17.203502	85.284118	1059.491175	168.240870	90.150191	1056.197874	-99.777626	-32.051236	547.404280	208.097917	7.399551	539.487559	88.017330	94.336674	814.171008	198.458065	95.310992	701.787483	150.541645	51.768410	706.765644	212.972529	-17.320715	559.647365	-139.431464	10.234114	530.670216	-24.017700	116.216500	803.400476	-99.558303	97.189398	689.354809	-54.910202	73.096988	689.838475	-130.249570	-134.912341	103.046741	206.029815	-80.841415	111.268843	120.442507	-12.173618	366.352891	189.882544	-38.819275	251.041998	149.691753	-58.543153	256.881293	214.749879	-115.712326	98.108645	-152.780948	-68.075623	100.569417	-63.849806	-4.170139	374.155604	-129.663325	-22.761954	266.065531	-91.094326	-47.030512	268.612964	-159.039381	-187.783988	32.240456	146.319171	45.583567	61.173119	187.260155	-0.917694	54.975966	256.576257	-173.369065	50.487456	-99.714029	66.494606	53.648593	-112.705021	28.156982	48.267268	-200.912948	76.349623	1484.566043	17.131873	-19.929135	1540.111916	222.282718	-4.705403	1528.815422	-184.045170	-91.893975	99.339031	-108.315377	-107.876878	107.157792	163.236161	26.105545	967.158468	-61.563036	22.628926	969.511402	129.925665	-3.543301	545.158791	-81.724582	-12.325843	543.445920	148.057624	
164	1.630000	-123.199110	1063.833160	17.213810	85.289804	1059.485654	168.235711	90.142193	1056.198787	-99.781694	-32.035584	547.400133	208.092625	7.405002	539.505157	88.016929	94.354183	814.173826	198.452829	95.333429	701.787089	150.539359	51.791353	706.766441	212.966158	-17.312723	559.647313	-139.434110	10.243454	530.665891	-24.023884	116.218356	803.404088	-99.574172	97.208566	689.356435	-54.924077	73.102041	689.841585	-130.257456	-134.910596	103.047643	206.030301	-80.839509	111.267912	120.441467	-12.164151	366.348751	189.878378	-38.813055	251.041791	149.687459	-58.536532	256.879229	214.746446	-115.720500	98.097018	-152.726658	-68.075195	100.568911	-63.846879	-4.164976	374.153534	-129.663600	-22.758659	266.065538	-91.094825	-47.028828	268.611394	-159.038483	-187.784985	32.241471	146.318636	45.583018	61.172595	187.259310	-0.917678	54.976819	256.574615	-173.368074	50.486951	-99.713171	66.493924	53.647530	-112.705202	28.155043	48.267513	-200.913391	76.358454	1484.560927	17.124508	-19.900005	1540.121355	222.279338	-4.714150	1528.796402	-184.052113	-91.897847	99.332965	-108.286769	-107.875053	107.157778	163.235884	26.101991	967.156722	-61.566146	22.635148	969.505061	129.921852	-3.534635	545.156602	-81.728997	-12.315291	543.452645	148.054777	
165	1.640000	-123.204751	1063.824951	17.226075	85.294742	1059.480281	168.230759	90.133253	1056.199518	-99.786259	-32.020539	547.395466	208.087679	7.407750	539.518390	88.014849	94.370916	814.176393	198.446114	95.354721	701.786419	150.535324	51.813942	706.767545	212.958329	-17.304396	559.646262	-139.431131	10.256170	530.660625	-24.029921	116.217939	803.408296	-99.590586	97.225738	689.358221	-54.939047	73.107279	689.845466	-130.267001	-134.909700	103.048236	206.030555	-80.837822	111.266794	120.439944	-12.154815	366.344853	189.874169	-38.807465	251.042037	149.682786	-58.529848	256.877140	214.743064	-115.727635	98.086282	-152.678313	-68.074859	100.568238	-63.844068	-4.159008	374.150364	-129.663667	-22.755085	266.064179	-91.094273	-47.026979	268.608889	-159.037085	-187.786497	32.242181	146.317948	45.581622	61.171844	187.259945	-0.917839	54.977734	256.573039	-173.367209	50.486199	-99.713021	66.493227	53.646841	-112.705328	28.153149	48.267846	-200.914067	76.365195	1484.556103	17.116841	-19.874230	1540.129703	222.275687	-4.725448	1528.778130	-184.057610	-91.901247	99.327260	-108.261191	-107.873761	107.157515	163.235250	26.097256	967.154887	-61.569483	22.640327	969.498864	129.918277	-3.524113	545.153443	-81.730526	-12.306395	543.456928	148.051264	
